<svg width="22" height="22" viewBox="0 0 22 22" fill="none" xmlns="http://www.w3.org/2000/svg">
<path d="M9.99131 1.92502C5.77464 2.38335 2.38298 5.77502 1.92464 9.90002C1.46631 14.2084 3.94131 18.0584 7.69964 19.525C7.97464 19.6167 8.24964 19.4334 8.24964 19.0667V17.6C8.24964 17.6 7.88298 17.6917 7.42464 17.6917C6.14131 17.6917 5.59131 16.5917 5.49964 15.95C5.40798 15.5834 5.22464 15.3084 4.94964 15.0334C4.67464 14.9417 4.58298 14.9417 4.58298 14.85C4.58298 14.6667 4.85798 14.6667 4.94964 14.6667C5.49964 14.6667 5.95798 15.3084 6.14131 15.5834C6.59964 16.3167 7.14964 16.5 7.42464 16.5C7.79131 16.5 8.06631 16.4084 8.24964 16.3167C8.34131 15.675 8.61631 15.0334 9.16631 14.6667C7.05798 14.2084 5.49964 13.0167 5.49964 11C5.49964 9.99169 5.95798 8.98335 6.59964 8.25002C6.50798 8.06669 6.41631 7.60835 6.41631 6.96669C6.41631 6.60002 6.41631 6.05002 6.69131 5.50002C6.69131 5.50002 7.97464 5.50002 9.25798 6.69169C9.71631 6.50835 10.358 6.41669 10.9996 6.41669C11.6413 6.41669 12.283 6.50835 12.833 6.69169C14.0246 5.50002 15.3996 5.50002 15.3996 5.50002C15.583 6.05002 15.583 6.60002 15.583 6.96669C15.583 7.70002 15.4913 8.06669 15.3996 8.25002C16.0413 8.98335 16.4996 9.90002 16.4996 11C16.4996 13.0167 14.9413 14.2084 12.833 14.6667C13.383 15.125 13.7496 15.95 13.7496 16.775V19.1584C13.7496 19.4334 14.0246 19.7084 14.3913 19.6167C17.783 18.2417 20.1663 14.9417 20.1663 11.0917C20.1663 5.59169 15.4913 1.28335 9.99131 1.92502Z" fill="currentColor"/>
</svg>
