<svg width="22" height="22" viewBox="0 0 22 22" fill="none" xmlns="http://www.w3.org/2000/svg">
<path d="M18.0398 1.76001H3.95977C2.74537 1.76001 1.75977 2.74561 1.75977 3.96001V18.04C1.75977 19.2544 2.74537 20.24 3.95977 20.24H18.0398C19.2542 20.24 20.2398 19.2544 20.2398 18.04V3.96001C20.2398 2.74561 19.2542 1.76001 18.0398 1.76001ZM7.47977 8.80001V17.16H4.83977V8.80001H7.47977ZM4.83977 6.36681C4.83977 5.75081 5.36777 5.28001 6.15977 5.28001C6.95177 5.28001 7.44897 5.75081 7.47977 6.36681C7.47977 6.98281 6.98697 7.48001 6.15977 7.48001C5.36777 7.48001 4.83977 6.98281 4.83977 6.36681ZM17.1598 17.16H14.5198C14.5198 17.16 14.5198 13.0856 14.5198 12.76C14.5198 11.88 14.0798 11 12.9798 10.9824H12.9446C11.8798 10.9824 11.4398 11.8888 11.4398 12.76C11.4398 13.1604 11.4398 17.16 11.4398 17.16H8.79977V8.80001H11.4398V9.92641C11.4398 9.92641 12.289 8.80001 13.9962 8.80001C15.743 8.80001 17.1598 10.0012 17.1598 12.4344V17.16Z" fill="currentColor"/>
</svg>
