<svg width="22" height="22" viewBox="0 0 22 22" fill="none" xmlns="http://www.w3.org/2000/svg">
<path fill-rule="evenodd" clip-rule="evenodd" d="M2.08234 5.83456C1.83301 6.32498 1.83301 6.96665 1.83301 8.24998V13.75C1.83301 15.0333 1.83301 15.675 2.08234 16.1654C2.30224 16.5965 2.65297 16.9469 3.08426 17.1664C3.57467 17.4166 4.21634 17.4166 5.49967 17.4166H16.4997C17.783 17.4166 18.4247 17.4166 18.9151 17.1664C19.346 16.9467 19.6964 16.5963 19.9161 16.1654C20.1663 15.675 20.1663 15.0333 20.1663 13.75V8.24998C20.1663 6.96665 20.1663 6.32498 19.9161 5.83456C19.6966 5.40328 19.3462 5.05255 18.9151 4.83265C18.4247 4.58331 17.783 4.58331 16.4997 4.58331H5.49967C4.21634 4.58331 3.57467 4.58331 3.08426 4.83265C2.65283 5.05239 2.30209 5.40314 2.08234 5.83456ZM4.25942 6.41665H17.7399C17.8383 6.41653 17.9342 6.44809 18.0133 6.50666C18.0924 6.56523 18.1505 6.6477 18.1791 6.74187C18.2076 6.83605 18.2052 6.93692 18.172 7.02956C18.1388 7.12221 18.0766 7.20172 17.9948 7.25631L11.5093 11.594C11.3585 11.6949 11.1811 11.7487 10.9997 11.7487C10.8182 11.7487 10.6408 11.6949 10.49 11.594L4.00459 7.25631C3.92271 7.20172 3.86058 7.12221 3.82739 7.02956C3.79419 6.93692 3.7917 6.83605 3.82028 6.74187C3.84886 6.6477 3.907 6.56523 3.98608 6.50666C4.06517 6.44809 4.16101 6.41653 4.25942 6.41665Z" fill="currentColor"/>
</svg>
